<?xml version="1.0" encoding="UTF-8"?>
<svg width="50px" height="50px" viewBox="0 0 50 50" version="1.1" xmlns="http://www.w3.org/2000/svg" xmlns:xlink="http://www.w3.org/1999/xlink">
    <title>lightning</title>
    <g id="lightning" stroke="none" stroke-width="1" fill="none" fill-rule="evenodd">
        <path d="M26.3664772,2.91203344 L5.17456505,26.9743681 C4.63193195,27.5905003 4.69151474,28.5298652 5.30764692,29.0724983 C5.57911126,29.3115793 5.92843547,29.4434757 6.29017106,29.4434757 L21.9124438,29.4434757 L21.9124438,29.4434757 L21.9124438,46.4352693 C21.9124438,47.3931229 22.6889376,48.1696167 23.6467912,48.1696167 C24.142455,48.1696167 24.6144338,47.9575411 24.9435703,47.5869312 L45.4369521,24.5112449 C46.0729974,23.7950536 46.0080262,22.6988492 45.2918349,22.062804 C44.9744338,21.7809219 44.5646739,21.6252356 44.140173,21.6252356 L29.1399398,21.6252356 L29.1399398,21.6252356 L28.9685974,3.8802041 C28.9606702,3.05922498 28.2887089,2.40011618 27.4677298,2.40804338 C27.0457505,2.41211793 26.645388,2.59534452 26.3664772,2.91203344 Z" id="路径" fill="#000000"></path>
    </g>
</svg>